<svg width="12" height="18" viewBox="0 0 12 18" fill="none" xmlns="http://www.w3.org/2000/svg">
<path d="M6 0.738281C5.12353 0.738281 4.28295 1.08646 3.66319 1.70622C3.04343 2.32598 2.69526 3.16655 2.69526 4.04303V4.59382H2.2381C1.7744 4.59333 1.32837 4.7717 0.992883 5.0918C0.657392 5.41191 0.458285 5.84907 0.437015 6.31228L0.00189039 15.3728C-0.00926393 15.6164 0.0290311 15.8598 0.114467 16.0883C0.199903 16.3167 0.330711 16.5255 0.499005 16.702C0.6673 16.8785 0.869597 17.0192 1.0937 17.1154C1.31781 17.2116 1.55908 17.2615 1.80298 17.262H10.197C10.4409 17.2615 10.6822 17.2116 10.9063 17.1154C11.1304 17.0192 11.3327 16.8785 11.501 16.702C11.6693 16.5255 11.8001 16.3167 11.8855 16.0883C11.971 15.8598 12.0093 15.6164 11.9981 15.3728L11.563 6.31228C11.5417 5.84907 11.3426 5.41191 11.0071 5.0918C10.6716 4.7717 10.2256 4.59333 9.7619 4.59382H9.30474V4.04303C9.30474 3.16655 8.95657 2.32598 8.33681 1.70622C7.71705 1.08646 6.87647 0.738281 6 0.738281ZM3.79684 4.04303C3.79684 3.45871 4.02896 2.89833 4.44213 2.48515C4.8553 2.07198 5.41568 1.83986 6 1.83986C6.58431 1.83986 7.1447 2.07198 7.55787 2.48515C7.97104 2.89833 8.20316 3.45871 8.20316 4.04303V4.59382H3.79684V4.04303ZM2.89354 6.90163C2.89354 6.79269 2.92584 6.6862 2.98637 6.59563C3.04689 6.50505 3.13291 6.43445 3.23355 6.39276C3.3342 6.35108 3.44494 6.34017 3.55179 6.36142C3.65863 6.38267 3.75677 6.43513 3.8338 6.51216C3.91083 6.58919 3.96329 6.68733 3.98454 6.79417C4.00579 6.90102 3.99488 7.01176 3.9532 7.11241C3.91151 7.21305 3.84091 7.29907 3.75033 7.35959C3.65976 7.42012 3.55327 7.45242 3.44433 7.45242C3.29825 7.45242 3.15816 7.39439 3.05486 7.2911C2.95157 7.1878 2.89354 7.04771 2.89354 6.90163ZM8.00488 6.90163C8.00488 6.79269 8.03718 6.6862 8.0977 6.59563C8.15822 6.50505 8.24425 6.43445 8.34489 6.39276C8.44553 6.35108 8.55628 6.34017 8.66312 6.36142C8.76997 6.38267 8.86811 6.43513 8.94514 6.51216C9.02217 6.58919 9.07462 6.68733 9.09588 6.79417C9.11713 6.90102 9.10622 7.01176 9.06453 7.11241C9.02284 7.21305 8.95225 7.29907 8.86167 7.35959C8.77109 7.42012 8.6646 7.45242 8.55567 7.45242C8.40959 7.45242 8.26949 7.39439 8.1662 7.2911C8.06291 7.1878 8.00488 7.04771 8.00488 6.90163Z" fill="white"/>
</svg>
