<svg width="25" height="24" viewBox="0 0 25 24" fill="none" xmlns="http://www.w3.org/2000/svg">
<path fill-rule="evenodd" clip-rule="evenodd" d="M12.4965 5.99805C11.3103 5.99805 10.1507 6.34968 9.16446 7.00848C8.17819 7.66729 7.40949 8.60367 6.95555 9.69922C6.50162 10.7948 6.38285 12.0003 6.61427 13.1633C6.84568 14.3263 7.41688 15.3946 8.25563 16.2331C9.09439 17.0716 10.163 17.6427 11.3264 17.874C12.4898 18.1053 13.6957 17.9866 14.7916 17.5328C15.8875 17.079 16.8241 16.3106 17.4831 15.3246C18.1422 14.3386 18.4939 13.1794 18.4939 11.9936C18.4939 10.4035 17.862 8.8785 16.7373 7.75411C15.6126 6.62972 14.0871 5.99805 12.4965 5.99805ZM9.49774 9.83522C9.49775 9.66444 9.54851 9.49751 9.64358 9.35562C9.73864 9.21373 9.87373 9.10327 10.0317 9.03827C10.1897 8.97326 10.3634 8.95664 10.5308 8.9905C10.6983 9.02437 10.8519 9.1072 10.9721 9.22849C11.0924 9.34977 11.1739 9.50404 11.2063 9.67172C11.2388 9.83939 11.2206 10.0129 11.1542 10.1703C11.0878 10.3276 10.9761 10.4617 10.8334 10.5555C10.6906 10.6493 10.5232 10.6986 10.3524 10.6971C10.2395 10.6971 10.1278 10.6747 10.0236 10.6313C9.9194 10.5879 9.82485 10.5243 9.74539 10.4442C9.66594 10.3641 9.60314 10.269 9.56063 10.1645C9.51813 10.0599 9.49675 9.94804 9.49774 9.83522ZM11.4019 14.3319C11.2392 14.4784 11.0265 14.5568 10.8077 14.5511C10.5888 14.5454 10.3805 14.4559 10.2257 14.3012C10.0709 14.1464 9.9814 13.9381 9.97568 13.7194C9.96996 13.5006 10.0484 13.2879 10.1949 13.1253L13.621 9.70032C13.7837 9.55386 13.9964 9.4754 14.2152 9.48112C14.4341 9.48684 14.6424 9.57631 14.7972 9.73106C14.952 9.88582 15.0415 10.0941 15.0472 10.3129C15.053 10.5316 14.9745 10.7443 14.828 10.9069L11.4019 14.3319ZM14.633 14.9914C14.4653 14.9899 14.3017 14.939 14.1627 14.8452C14.0237 14.7514 13.9153 14.6188 13.8512 14.4638C13.787 14.3089 13.7699 14.1385 13.8019 13.9739C13.834 13.8093 13.9138 13.6578 14.0313 13.5382C14.1489 13.4186 14.2991 13.3362 14.4632 13.3014C14.6273 13.2665 14.798 13.2807 14.954 13.3421C15.1101 13.4036 15.2446 13.5096 15.3409 13.647C15.4371 13.7843 15.4908 13.9469 15.4952 14.1146C15.4983 14.2306 15.4777 14.346 15.4347 14.4537C15.3917 14.5615 15.3272 14.6594 15.2452 14.7415C15.1631 14.8235 15.0652 14.888 14.9573 14.931C14.8495 14.9739 14.7341 14.9945 14.6181 14.9914H14.633Z" fill="white"/>
<path fill-rule="evenodd" clip-rule="evenodd" d="M24.2062 11.0482L22.362 8.24527C22.2442 8.0619 22.1604 7.8588 22.1146 7.64571L21.4474 4.36313C21.377 4.03598 21.2136 3.73609 20.9769 3.49946C20.7402 3.26283 20.4402 3.09952 20.113 3.02912L16.8294 2.36211C16.6162 2.31636 16.413 2.23258 16.2296 2.11479L13.4408 0.286139C13.1611 0.0995683 12.8324 0 12.4962 0C12.16 0 11.8313 0.0995683 11.5516 0.286139L8.74782 2.12978C8.5644 2.24757 8.36123 2.33135 8.14808 2.3771L4.86448 3.0441C4.53998 3.11706 4.24321 3.28151 4.00935 3.51795C3.77549 3.7544 3.61436 4.05291 3.54505 4.37812L2.87783 7.6607C2.83207 7.87379 2.74827 8.07689 2.63044 8.26026L0.786228 11.0482C0.599599 11.3278 0.5 11.6564 0.5 11.9925C0.5 12.3286 0.599599 12.6572 0.786228 12.9368L2.63044 15.7397C2.74827 15.9231 2.83207 16.1262 2.87783 16.3393L3.54505 19.6219C3.61547 19.949 3.77884 20.2489 4.01554 20.4855C4.25224 20.7222 4.55222 20.8855 4.87948 20.9559L8.16307 21.6229C8.37623 21.6686 8.57939 21.7524 8.76282 21.8702L11.5516 23.7139C11.8313 23.9004 12.16 24 12.4962 24C12.8324 24 13.1611 23.9004 13.4408 23.7139L16.2446 21.8552C16.428 21.7374 16.6312 21.6537 16.8444 21.6079L20.128 20.9409C20.4552 20.8705 20.7552 20.7072 20.9919 20.4706C21.2286 20.2339 21.392 19.934 21.4624 19.6069L22.1296 16.3243C22.1754 16.1112 22.2592 15.9081 22.377 15.7248L24.2212 12.9368C24.4056 12.6557 24.5026 12.3264 24.4999 11.9902C24.4973 11.6541 24.3951 11.3263 24.2062 11.0482ZM12.4962 19.7043C10.9705 19.7043 9.47903 19.252 8.21044 18.4046C6.94184 17.5573 5.9531 16.3528 5.36923 14.9437C4.78536 13.5345 4.63259 11.9839 4.93024 10.488C5.2279 8.99206 5.9626 7.61795 7.04145 6.53943C8.12031 5.46091 9.49484 4.72643 10.9913 4.42887C12.4877 4.13131 14.0387 4.28403 15.4483 4.86772C16.8579 5.45141 18.0627 6.43985 18.9103 7.70805C19.758 8.97625 20.2104 10.4673 20.2104 11.9925C20.2065 14.0366 19.3924 15.9958 17.9466 17.4412C16.5008 18.8866 14.5409 19.7004 12.4962 19.7043Z" fill="white"/>
</svg>
